<mxfile host="app.diagrams.net" modified="2024-02-27T17:09:35.688Z" agent="Mozilla/5.0 (Windows NT 10.0; Win64; x64) AppleWebKit/537.36 (KHTML, like Gecko) Chrome/122.0.0.0 Safari/537.36 Edg/122.0.0.0" etag="0FqIIJ6-zI30p29_zRWS" version="23.1.5" type="device">
  <diagram name="Страница — 1" id="J7NuIUV9PQ02l1ZGplA2">
    <mxGraphModel dx="2338" dy="1497" grid="1" gridSize="10" guides="1" tooltips="1" connect="1" arrows="1" fold="1" page="1" pageScale="1" pageWidth="1384" pageHeight="980" math="0" shadow="0">
      <root>
        <mxCell id="0" />
        <mxCell id="1" parent="0" />
        <mxCell id="3UqMkCQrc7F0VQ00rMsC-3" value="+С1" style="swimlane;whiteSpace=wrap;html=1;" parent="1" vertex="1">
          <mxGeometry x="10" y="25" width="306" height="260" as="geometry" />
        </mxCell>
        <mxCell id="3UqMkCQrc7F0VQ00rMsC-4" value="-Album(string)" style="text;html=1;align=center;verticalAlign=middle;resizable=0;points=[];autosize=1;strokeColor=none;fillColor=none;" parent="3UqMkCQrc7F0VQ00rMsC-3" vertex="1">
          <mxGeometry x="-12" y="20" width="100" height="30" as="geometry" />
        </mxCell>
        <mxCell id="CmFBqmL9VnSYAantr8nA-1" value="+Year(int)" style="text;html=1;align=center;verticalAlign=middle;resizable=0;points=[];autosize=1;strokeColor=none;fillColor=none;" parent="3UqMkCQrc7F0VQ00rMsC-3" vertex="1">
          <mxGeometry x="-14" y="38" width="80" height="30" as="geometry" />
        </mxCell>
        <mxCell id="CmFBqmL9VnSYAantr8nA-2" value="#Artist(string)" style="text;html=1;align=center;verticalAlign=middle;resizable=0;points=[];autosize=1;strokeColor=none;fillColor=none;" parent="3UqMkCQrc7F0VQ00rMsC-3" vertex="1">
          <mxGeometry x="-8" y="56" width="90" height="30" as="geometry" />
        </mxCell>
        <mxCell id="CmFBqmL9VnSYAantr8nA-3" value="&amp;lt;&amp;lt;getter&amp;gt;&amp;gt;-id:int" style="text;html=1;align=center;verticalAlign=middle;resizable=0;points=[];autosize=1;strokeColor=none;fillColor=none;" parent="3UqMkCQrc7F0VQ00rMsC-3" vertex="1">
          <mxGeometry x="-10" y="72" width="110" height="30" as="geometry" />
        </mxCell>
        <mxCell id="CmFBqmL9VnSYAantr8nA-4" value="&amp;lt;&amp;lt;setter&amp;gt;&amp;gt;-id:int" style="text;html=1;align=center;verticalAlign=middle;resizable=0;points=[];autosize=1;strokeColor=none;fillColor=none;" parent="3UqMkCQrc7F0VQ00rMsC-3" vertex="1">
          <mxGeometry x="-10" y="87" width="110" height="30" as="geometry" />
        </mxCell>
        <mxCell id="CmFBqmL9VnSYAantr8nA-5" value="&amp;lt;&amp;lt;getter&amp;gt;&amp;gt;+name:string" style="text;html=1;align=center;verticalAlign=middle;resizable=0;points=[];autosize=1;strokeColor=none;fillColor=none;" parent="3UqMkCQrc7F0VQ00rMsC-3" vertex="1">
          <mxGeometry x="-10" y="102" width="150" height="30" as="geometry" />
        </mxCell>
        <mxCell id="CmFBqmL9VnSYAantr8nA-6" value="&amp;lt;&amp;lt;setter&amp;gt;&amp;gt;+name:string" style="text;html=1;align=center;verticalAlign=middle;resizable=0;points=[];autosize=1;strokeColor=none;fillColor=none;" parent="3UqMkCQrc7F0VQ00rMsC-3" vertex="1">
          <mxGeometry x="-10" y="116" width="150" height="30" as="geometry" />
        </mxCell>
        <mxCell id="CmFBqmL9VnSYAantr8nA-7" value="&amp;lt;&amp;lt;getter&amp;gt;&amp;gt;#surname:string" style="text;html=1;align=center;verticalAlign=middle;resizable=0;points=[];autosize=1;strokeColor=none;fillColor=none;" parent="3UqMkCQrc7F0VQ00rMsC-3" vertex="1">
          <mxGeometry x="-12" y="130" width="170" height="30" as="geometry" />
        </mxCell>
        <mxCell id="CmFBqmL9VnSYAantr8nA-8" value="&amp;lt;&amp;lt;setter&amp;gt;&amp;gt;#surname:string" style="text;html=1;align=center;verticalAlign=middle;resizable=0;points=[];autosize=1;strokeColor=none;fillColor=none;" parent="3UqMkCQrc7F0VQ00rMsC-3" vertex="1">
          <mxGeometry x="-12" y="144" width="170" height="30" as="geometry" />
        </mxCell>
        <mxCell id="CmFBqmL9VnSYAantr8nA-9" value="&amp;lt;&amp;lt;constructor&amp;gt;&amp;gt;+C1" style="text;html=1;align=center;verticalAlign=middle;resizable=0;points=[];autosize=1;strokeColor=none;fillColor=none;" parent="3UqMkCQrc7F0VQ00rMsC-3" vertex="1">
          <mxGeometry x="-10" y="159" width="130" height="30" as="geometry" />
        </mxCell>
        <mxCell id="CmFBqmL9VnSYAantr8nA-10" value="&amp;lt;&amp;lt;constructor&amp;gt;&amp;gt;+C1(int id, string name, string surname)" style="text;html=1;align=center;verticalAlign=middle;resizable=0;points=[];autosize=1;strokeColor=none;fillColor=none;" parent="3UqMkCQrc7F0VQ00rMsC-3" vertex="1">
          <mxGeometry x="-10" y="175" width="320" height="30" as="geometry" />
        </mxCell>
        <mxCell id="CmFBqmL9VnSYAantr8nA-11" value="&amp;lt;&amp;lt;constructor&amp;gt;&amp;gt;+C1(C1 c1)" style="text;html=1;align=center;verticalAlign=middle;resizable=0;points=[];autosize=1;strokeColor=none;fillColor=none;" parent="3UqMkCQrc7F0VQ00rMsC-3" vertex="1">
          <mxGeometry x="-10" y="191" width="170" height="30" as="geometry" />
        </mxCell>
        <mxCell id="CmFBqmL9VnSYAantr8nA-12" value="-Print()" style="text;html=1;align=center;verticalAlign=middle;resizable=0;points=[];autosize=1;strokeColor=none;fillColor=none;" parent="3UqMkCQrc7F0VQ00rMsC-3" vertex="1">
          <mxGeometry x="-10" y="208" width="60" height="30" as="geometry" />
        </mxCell>
        <mxCell id="CmFBqmL9VnSYAantr8nA-13" value="+PrintInfo()" style="text;html=1;align=center;verticalAlign=middle;resizable=0;points=[];autosize=1;strokeColor=none;fillColor=none;" parent="3UqMkCQrc7F0VQ00rMsC-3" vertex="1">
          <mxGeometry x="-10" y="223" width="80" height="30" as="geometry" />
        </mxCell>
        <mxCell id="CmFBqmL9VnSYAantr8nA-14" value="#PrintInfos()" style="text;html=1;align=center;verticalAlign=middle;resizable=0;points=[];autosize=1;strokeColor=none;fillColor=none;" parent="3UqMkCQrc7F0VQ00rMsC-3" vertex="1">
          <mxGeometry x="-11" y="239" width="90" height="30" as="geometry" />
        </mxCell>
        <mxCell id="CmFBqmL9VnSYAantr8nA-15" value="+I1" style="swimlane;whiteSpace=wrap;html=1;" parent="1" vertex="1">
          <mxGeometry x="400" y="320" width="195" height="90" as="geometry" />
        </mxCell>
        <mxCell id="CmFBqmL9VnSYAantr8nA-16" value="+Id: int [getter, setter]" style="text;html=1;align=center;verticalAlign=middle;resizable=0;points=[];autosize=1;strokeColor=none;fillColor=none;" parent="CmFBqmL9VnSYAantr8nA-15" vertex="1">
          <mxGeometry x="-10" y="18" width="140" height="30" as="geometry" />
        </mxCell>
        <mxCell id="CmFBqmL9VnSYAantr8nA-17" value="+Method(): void[method]" style="text;html=1;align=center;verticalAlign=middle;resizable=0;points=[];autosize=1;strokeColor=none;fillColor=none;" parent="CmFBqmL9VnSYAantr8nA-15" vertex="1">
          <mxGeometry x="-7" y="34" width="150" height="30" as="geometry" />
        </mxCell>
        <mxCell id="CmFBqmL9VnSYAantr8nA-18" value="+Event: EventHandler[event]" style="text;html=1;align=center;verticalAlign=middle;resizable=0;points=[];autosize=1;strokeColor=none;fillColor=none;" parent="CmFBqmL9VnSYAantr8nA-15" vertex="1">
          <mxGeometry x="-11" y="51" width="180" height="30" as="geometry" />
        </mxCell>
        <mxCell id="CmFBqmL9VnSYAantr8nA-19" value="+this[int]: int[index, getter, setter]" style="text;html=1;align=center;verticalAlign=middle;resizable=0;points=[];autosize=1;strokeColor=none;fillColor=none;" parent="CmFBqmL9VnSYAantr8nA-15" vertex="1">
          <mxGeometry x="-11" y="67" width="200" height="30" as="geometry" />
        </mxCell>
        <mxCell id="CmFBqmL9VnSYAantr8nA-20" value="+C2" style="swimlane;whiteSpace=wrap;html=1;" parent="1" vertex="1">
          <mxGeometry x="397.5" y="-10" width="200" height="300" as="geometry" />
        </mxCell>
        <mxCell id="CmFBqmL9VnSYAantr8nA-21" value="-id: int" style="text;html=1;align=center;verticalAlign=middle;resizable=0;points=[];autosize=1;strokeColor=none;fillColor=none;" parent="CmFBqmL9VnSYAantr8nA-20" vertex="1">
          <mxGeometry x="-10" y="20" width="60" height="30" as="geometry" />
        </mxCell>
        <mxCell id="CmFBqmL9VnSYAantr8nA-22" value="-name:string" style="text;html=1;align=center;verticalAlign=middle;resizable=0;points=[];autosize=1;strokeColor=none;fillColor=none;" parent="CmFBqmL9VnSYAantr8nA-20" vertex="1">
          <mxGeometry x="-9" y="35" width="90" height="30" as="geometry" />
        </mxCell>
        <mxCell id="CmFBqmL9VnSYAantr8nA-23" value="-surname:string" style="text;html=1;align=center;verticalAlign=middle;resizable=0;points=[];autosize=1;strokeColor=none;fillColor=none;" parent="CmFBqmL9VnSYAantr8nA-20" vertex="1">
          <mxGeometry x="-11" y="51" width="110" height="30" as="geometry" />
        </mxCell>
        <mxCell id="CmFBqmL9VnSYAantr8nA-24" value="&amp;lt;&amp;lt;getter&amp;gt;&amp;gt;-id:int" style="text;html=1;align=center;verticalAlign=middle;resizable=0;points=[];autosize=1;strokeColor=none;fillColor=none;" parent="CmFBqmL9VnSYAantr8nA-20" vertex="1">
          <mxGeometry x="-10" y="68" width="110" height="30" as="geometry" />
        </mxCell>
        <mxCell id="CmFBqmL9VnSYAantr8nA-25" value="&amp;lt;&amp;lt;setter&amp;gt;&amp;gt;+Surname:string" style="text;html=1;align=center;verticalAlign=middle;resizable=0;points=[];autosize=1;strokeColor=none;fillColor=none;" parent="CmFBqmL9VnSYAantr8nA-20" vertex="1">
          <mxGeometry x="-11" y="116" width="170" height="30" as="geometry" />
        </mxCell>
        <mxCell id="CmFBqmL9VnSYAantr8nA-26" value="&amp;lt;&amp;lt;setter&amp;gt;&amp;gt;-id:int" style="text;html=1;align=center;verticalAlign=middle;resizable=0;points=[];autosize=1;strokeColor=none;fillColor=none;" parent="CmFBqmL9VnSYAantr8nA-20" vertex="1">
          <mxGeometry x="-10" y="83" width="110" height="30" as="geometry" />
        </mxCell>
        <mxCell id="CmFBqmL9VnSYAantr8nA-27" value="&amp;lt;&amp;lt;getter&amp;gt;&amp;gt;+Surname:string" style="text;html=1;align=center;verticalAlign=middle;resizable=0;points=[];autosize=1;strokeColor=none;fillColor=none;" parent="CmFBqmL9VnSYAantr8nA-20" vertex="1">
          <mxGeometry x="-11" y="98" width="170" height="30" as="geometry" />
        </mxCell>
        <mxCell id="CmFBqmL9VnSYAantr8nA-28" value="+Num(double)" style="text;html=1;align=center;verticalAlign=middle;resizable=0;points=[];autosize=1;strokeColor=none;fillColor=none;" parent="CmFBqmL9VnSYAantr8nA-20" vertex="1">
          <mxGeometry x="-11" y="134" width="100" height="30" as="geometry" />
        </mxCell>
        <mxCell id="CmFBqmL9VnSYAantr8nA-29" value="+Type(string)" style="text;html=1;align=center;verticalAlign=middle;resizable=0;points=[];autosize=1;strokeColor=none;fillColor=none;" parent="CmFBqmL9VnSYAantr8nA-20" vertex="1">
          <mxGeometry x="-9" y="152" width="90" height="30" as="geometry" />
        </mxCell>
        <mxCell id="CmFBqmL9VnSYAantr8nA-30" value="+PrintInfo()" style="text;html=1;align=center;verticalAlign=middle;resizable=0;points=[];autosize=1;strokeColor=none;fillColor=none;" parent="CmFBqmL9VnSYAantr8nA-20" vertex="1">
          <mxGeometry x="-9" y="169" width="80" height="30" as="geometry" />
        </mxCell>
        <mxCell id="CmFBqmL9VnSYAantr8nA-31" value="+Print()" style="text;html=1;align=center;verticalAlign=middle;resizable=0;points=[];autosize=1;strokeColor=none;fillColor=none;" parent="CmFBqmL9VnSYAantr8nA-20" vertex="1">
          <mxGeometry x="-9" y="185" width="60" height="30" as="geometry" />
        </mxCell>
        <mxCell id="CmFBqmL9VnSYAantr8nA-32" value="-Print()" style="text;html=1;align=center;verticalAlign=middle;resizable=0;points=[];autosize=1;strokeColor=none;fillColor=none;" parent="CmFBqmL9VnSYAantr8nA-20" vertex="1">
          <mxGeometry x="-9" y="201" width="60" height="30" as="geometry" />
        </mxCell>
        <mxCell id="CmFBqmL9VnSYAantr8nA-33" value="+Method()" style="text;html=1;align=center;verticalAlign=middle;resizable=0;points=[];autosize=1;strokeColor=none;fillColor=none;" parent="CmFBqmL9VnSYAantr8nA-20" vertex="1">
          <mxGeometry x="-11" y="216" width="80" height="30" as="geometry" />
        </mxCell>
        <mxCell id="CmFBqmL9VnSYAantr8nA-34" value="+Event:EventHandler" style="text;html=1;align=center;verticalAlign=middle;resizable=0;points=[];autosize=1;strokeColor=none;fillColor=none;" parent="CmFBqmL9VnSYAantr8nA-20" vertex="1">
          <mxGeometry x="-12" y="230" width="140" height="30" as="geometry" />
        </mxCell>
        <mxCell id="CmFBqmL9VnSYAantr8nA-35" value="+this[int]:int[index, getter, setter]" style="text;html=1;align=center;verticalAlign=middle;resizable=0;points=[];autosize=1;strokeColor=none;fillColor=none;" parent="CmFBqmL9VnSYAantr8nA-20" vertex="1">
          <mxGeometry x="-9" y="246" width="190" height="30" as="geometry" />
        </mxCell>
        <mxCell id="CmFBqmL9VnSYAantr8nA-37" value="" style="endArrow=block;html=1;rounded=0;endFill=0;dashed=1;exitX=0.5;exitY=1;exitDx=0;exitDy=0;entryX=0.5;entryY=0;entryDx=0;entryDy=0;" parent="1" source="CmFBqmL9VnSYAantr8nA-20" target="CmFBqmL9VnSYAantr8nA-15" edge="1">
          <mxGeometry width="50" height="50" relative="1" as="geometry">
            <mxPoint x="520" y="320" as="sourcePoint" />
            <mxPoint x="470" y="320" as="targetPoint" />
          </mxGeometry>
        </mxCell>
        <mxCell id="vY-2WL7JazWuGcaPnFXd-1" value="+I1" style="swimlane;whiteSpace=wrap;html=1;" vertex="1" parent="1">
          <mxGeometry x="680" y="25" width="195" height="90" as="geometry" />
        </mxCell>
        <mxCell id="vY-2WL7JazWuGcaPnFXd-2" value="+Id: int [getter, setter]" style="text;html=1;align=center;verticalAlign=middle;resizable=0;points=[];autosize=1;strokeColor=none;fillColor=none;" vertex="1" parent="vY-2WL7JazWuGcaPnFXd-1">
          <mxGeometry x="-10" y="18" width="140" height="30" as="geometry" />
        </mxCell>
        <mxCell id="vY-2WL7JazWuGcaPnFXd-3" value="+Method(): void[method]" style="text;html=1;align=center;verticalAlign=middle;resizable=0;points=[];autosize=1;strokeColor=none;fillColor=none;" vertex="1" parent="vY-2WL7JazWuGcaPnFXd-1">
          <mxGeometry x="-7" y="34" width="150" height="30" as="geometry" />
        </mxCell>
        <mxCell id="vY-2WL7JazWuGcaPnFXd-4" value="+Event: EventHandler[event]" style="text;html=1;align=center;verticalAlign=middle;resizable=0;points=[];autosize=1;strokeColor=none;fillColor=none;" vertex="1" parent="vY-2WL7JazWuGcaPnFXd-1">
          <mxGeometry x="-11" y="51" width="180" height="30" as="geometry" />
        </mxCell>
        <mxCell id="vY-2WL7JazWuGcaPnFXd-5" value="+this[int]: int[index, getter, setter]" style="text;html=1;align=center;verticalAlign=middle;resizable=0;points=[];autosize=1;strokeColor=none;fillColor=none;" vertex="1" parent="vY-2WL7JazWuGcaPnFXd-1">
          <mxGeometry x="-11" y="67" width="200" height="30" as="geometry" />
        </mxCell>
      </root>
    </mxGraphModel>
  </diagram>
</mxfile>
